<?xml version="1.0" standalone="no"?>
<!DOCTYPE svg PUBLIC "-//W3C//DTD SVG 20010904//EN"
 "http://www.w3.org/TR/2001/REC-SVG-20010904/DTD/svg10.dtd">
<svg version="1.0" xmlns="http://www.w3.org/2000/svg"
 width="1024.000000pt" height="1024.000000pt" viewBox="0 0 1024.000000 1024.000000"
 preserveAspectRatio="xMidYMid meet">
<metadata>
Created by potrace 1.14, written by Peter Selinger 2001-2017
</metadata>
<g transform="translate(0.000000,1024.000000) scale(0.100000,-0.100000)"
fill="#000000" stroke="none">
<path d="M4045 10063 c-112 -17 -116 -18 -157 -36 -20 -8 -39 -13 -42 -9 -3 3
-6 0 -6 -6 0 -7 -3 -11 -7 -10 -11 3 -110 -49 -118 -62 -4 -6 -11 -8 -16 -5
-5 4 -12 -1 -15 -9 -3 -9 -12 -16 -18 -16 -7 0 -21 -10 -32 -22 -11 -13 -34
-34 -52 -47 -17 -13 -29 -28 -26 -32 3 -5 -2 -9 -10 -9 -9 0 -16 -6 -16 -13 0
-7 -10 -23 -22 -35 -35 -31 -53 -56 -50 -64 1 -5 -2 -8 -6 -8 -4 0 -14 -16
-21 -35 -7 -19 -17 -35 -22 -35 -5 0 -9 -11 -9 -24 0 -13 -5 -26 -11 -28 -5
-2 -11 -10 -13 -18 -8 -42 -19 -70 -27 -70 -5 0 -9 -5 -9 -11 0 -5 6 -7 13 -3
9 6 9 4 1 -7 -14 -17 -24 -62 -28 -122 -2 -25 -6 -50 -10 -55 -3 -6 -2 -14 4
-17 8 -5 8 -11 0 -20 -7 -8 -7 -15 -1 -19 10 -6 10 -24 -1 -41 -4 -6 -3 -17 3
-25 5 -8 9 -34 9 -57 0 -23 5 -45 10 -48 8 -5 7 -11 -1 -21 -6 -8 -7 -14 -2
-14 6 0 16 -20 23 -45 7 -25 17 -48 22 -51 4 -3 6 -10 2 -15 -3 -6 0 -18 8
-27 7 -9 24 -37 38 -62 30 -58 62 -103 78 -113 7 -5 11 -11 8 -15 -2 -4 2 -13
10 -20 8 -7 14 -9 14 -5 0 4 8 -4 18 -20 10 -15 22 -24 25 -20 4 3 7 -1 7 -10
0 -10 6 -17 13 -17 7 0 19 -9 27 -20 8 -11 19 -20 24 -20 5 0 16 -8 25 -18 9
-10 31 -24 49 -31 17 -8 32 -17 32 -22 0 -5 6 -9 13 -9 8 0 29 -8 48 -17 19
-10 40 -18 48 -19 8 -2 17 -6 20 -11 3 -4 22 -10 41 -11 19 -2 37 -7 40 -11 3
-5 12 -8 20 -9 8 0 31 -3 50 -6 19 -3 73 -5 120 -6 123 0 191 10 218 32 12 10
14 10 8 1 -4 -7 -2 -13 3 -13 6 0 11 5 11 12 0 6 3 9 6 5 4 -3 28 2 55 12 26
10 50 16 53 13 4 -3 6 0 6 6 0 6 10 14 23 18 12 3 29 12 37 19 8 8 21 15 29
17 8 2 22 10 32 18 10 8 30 24 45 35 15 11 44 37 64 57 21 20 41 34 46 30 4
-4 4 -2 1 4 -4 6 5 22 19 35 14 13 37 43 51 67 14 23 29 42 35 42 5 0 6 5 3
10 -3 6 -1 10 5 10 7 0 10 6 7 14 -3 8 3 23 13 34 10 11 16 23 13 26 -4 3 368
6 825 6 651 0 832 -3 832 -13 0 -7 3 -8 8 -2 6 9 37 12 52 5 3 -1 25 -4 50 -6
84 -6 131 -14 150 -24 10 -5 26 -7 34 -4 9 3 16 1 16 -5 0 -7 6 -11 13 -9 15
3 128 -23 142 -33 6 -4 27 -10 48 -14 20 -4 42 -15 47 -24 8 -13 9 -13 10 -1
0 12 2 12 9 2 4 -8 10 -13 12 -11 8 4 79 -25 79 -33 0 -4 7 -8 16 -8 22 0 184
-81 184 -92 0 -5 4 -7 9 -3 6 3 14 -2 19 -11 5 -9 13 -16 18 -16 20 -1 54 -18
54 -28 0 -5 7 -10 15 -10 7 0 19 -8 24 -17 6 -10 11 -15 11 -11 0 7 25 -11 55
-39 8 -7 18 -13 24 -13 6 0 11 -5 11 -11 0 -5 5 -7 10 -4 6 3 10 -1 10 -9 0
-9 4 -16 9 -16 10 0 64 -44 90 -72 8 -10 21 -18 28 -18 7 0 12 -4 10 -8 -1 -5
13 -23 31 -39 17 -17 32 -37 32 -44 0 -7 3 -10 6 -6 6 6 34 -16 34 -27 0 -3
18 -25 40 -48 22 -24 40 -49 40 -56 0 -7 4 -11 9 -7 5 3 12 -4 16 -15 3 -11
11 -20 17 -20 6 0 9 -3 5 -6 -3 -3 2 -15 12 -25 10 -11 24 -32 32 -47 8 -15
20 -31 27 -35 7 -5 10 -12 7 -18 -4 -5 -1 -9 4 -9 6 0 11 -7 11 -15 0 -8 4
-15 8 -15 5 0 14 -16 22 -35 8 -19 18 -35 22 -35 5 0 6 -4 3 -10 -3 -5 -2 -10
4 -10 5 0 12 -14 16 -30 4 -17 12 -36 19 -43 13 -14 78 -178 73 -184 -8 -7
-48 -12 -43 -5 4 6 -1901 7 -2084 1 -37 -1 -72 1 -78 5 -7 4 -12 2 -12 -5 0
-7 -6 -4 -14 6 -8 11 -11 26 -8 34 3 9 1 12 -6 7 -8 -4 -10 -2 -6 7 3 8 1 18
-5 22 -6 3 -11 14 -11 24 0 10 -7 24 -15 31 -8 7 -13 15 -10 19 2 4 -9 23 -26
42 -16 19 -32 42 -35 52 -3 9 -10 17 -15 17 -5 0 -28 18 -50 40 -37 37 -46 42
-66 39 -3 0 -10 6 -15 15 -5 8 -24 18 -43 22 -19 3 -32 10 -29 15 3 5 -8 9
-24 9 -16 0 -32 3 -36 7 -12 13 -161 18 -221 7 -22 -4 -46 -7 -52 -7 -7 0 -13
-4 -13 -9 0 -5 -4 -7 -9 -3 -6 3 -26 -4 -46 -15 -20 -11 -40 -18 -45 -15 -5 3
-11 -4 -15 -15 -4 -11 -11 -18 -16 -15 -5 4 -20 -5 -34 -19 -14 -14 -25 -23
-25 -19 0 8 -70 -71 -70 -80 0 -5 -4 -5 -10 -2 -5 3 -10 1 -10 -6 0 -7 -8 -21
-17 -32 -13 -15 -14 -19 -3 -13 12 6 12 5 -1 -6 -16 -14 -33 -48 -31 -60 1 -5
-3 -8 -10 -8 -6 0 -9 -3 -5 -6 3 -4 0 -22 -8 -41 -8 -20 -15 -47 -15 -62 0
-15 -5 -32 -11 -38 -7 -7 -8 -13 0 -17 7 -4 7 -15 1 -31 -5 -13 -6 -26 -2 -29
5 -3 9 -24 10 -48 3 -46 19 -104 37 -127 8 -12 7 -13 -4 -6 -10 6 -8 -2 5 -21
11 -16 26 -41 34 -56 18 -37 112 -138 128 -138 7 0 11 -5 10 -12 -2 -6 6 -14
17 -16 11 -2 32 -13 47 -23 14 -11 31 -19 37 -19 6 0 11 -4 11 -9 0 -5 6 -9
13 -8 34 1 58 -4 53 -11 -6 -10 -6 -10 104 -15 94 -5 172 1 165 12 -2 4 9 7
25 6 16 -1 27 2 24 7 -3 4 2 8 11 8 21 0 117 51 128 68 4 6 13 12 18 12 9 0
38 29 89 87 8 10 14 21 13 25 -2 5 0 8 5 8 4 0 19 21 32 48 14 26 28 48 31 50
4 2 4 12 1 24 -4 15 -2 19 7 13 9 -5 12 -1 11 11 -4 36 0 40 46 43 35 1 44 -1
38 -11 -6 -11 -5 -11 8 0 20 16 221 14 211 -2 -4 -7 -1 -6 8 1 19 15 171 15
181 -1 6 -8 8 -7 8 1 0 17 230 16 230 -1 0 -7 3 -6 8 2 11 16 215 15 205 -2
-4 -7 -1 -6 8 1 19 15 171 15 181 -1 6 -8 8 -7 8 1 0 9 32 12 124 12 113 -1
125 -3 129 -20 3 -10 2 -19 -2 -19 -4 0 -8 -10 -8 -22 -1 -13 -4 -36 -8 -53
-3 -16 -7 -42 -8 -57 -1 -16 -6 -28 -10 -28 -5 0 -5 -4 -2 -10 3 -5 3 -16 -2
-22 -15 -25 -32 -82 -26 -91 3 -6 1 -7 -5 -3 -6 3 -13 -6 -17 -24 -4 -16 -14
-34 -23 -40 -11 -6 -12 -9 -4 -10 9 0 7 -8 -7 -26 -12 -15 -21 -33 -21 -41 0
-8 -4 -11 -10 -8 -6 3 -7 -1 -4 -9 3 -9 1 -16 -5 -16 -6 0 -11 -7 -11 -15 0
-9 -7 -18 -15 -21 -8 -4 -13 -9 -10 -14 13 -21 -231 -275 -292 -303 -13 -6
-23 -14 -23 -19 0 -4 -7 -8 -15 -8 -8 0 -15 -4 -15 -10 0 -5 -10 -10 -22 -10
-12 0 -18 -3 -15 -6 6 -6 -102 -64 -120 -65 -5 0 -16 -8 -25 -16 -10 -9 -18
-13 -18 -9 0 3 -12 0 -27 -7 -16 -8 -34 -12 -40 -10 -7 3 -13 0 -13 -6 0 -6
-3 -10 -7 -10 -5 1 -10 0 -13 -1 -12 -4 -47 -12 -70 -14 -45 -5 -105 -18 -120
-26 -9 -5 -23 -4 -33 1 -9 6 -17 6 -17 1 0 -12 -1631 -10 -1649 2 -10 6 -12 6
-7 -2 5 -9 -11 -11 -56 -9 -48 1 -63 6 -64 17 -1 8 -3 20 -4 25 -1 6 -2 17 -1
27 1 9 -3 19 -9 23 -8 5 -8 11 1 21 9 11 9 14 0 14 -7 0 -12 10 -11 23 1 12 1
27 0 32 -2 6 -4 15 -5 20 -6 30 -18 72 -25 90 -5 11 -11 29 -12 40 -2 11 -5
22 -8 25 -7 7 -32 73 -33 88 0 6 -4 12 -9 12 -4 0 -8 9 -8 20 0 11 -4 20 -10
20 -5 0 -10 7 -10 15 0 16 -20 56 -32 65 -3 3 -8 12 -10 20 -2 8 -13 26 -26
40 -12 14 -25 34 -28 45 -4 11 -14 27 -23 37 -9 9 -25 28 -36 43 -11 14 -50
57 -86 95 -37 38 -64 72 -61 75 3 3 -2 5 -11 5 -9 0 -17 5 -17 10 0 6 -12 15
-26 20 -15 6 -22 14 -18 22 4 7 3 8 -4 4 -7 -4 -12 -2 -12 3 0 6 -6 11 -12 11
-7 0 -24 12 -37 25 -12 14 -26 23 -30 20 -4 -2 -14 5 -21 16 -8 10 -23 19 -33
19 -9 0 -20 7 -23 15 -4 8 -11 15 -18 15 -6 0 -46 18 -90 40 -43 22 -86 42
-96 43 -10 2 -25 8 -32 15 -8 6 -18 9 -22 5 -4 -4 -10 -2 -14 4 -6 10 -49 22
-89 25 -7 1 -13 5 -13 10 0 4 -5 8 -11 8 -5 0 -7 -5 -3 -11 3 -6 -6 -3 -22 7
-21 14 -26 15 -19 4 7 -12 6 -13 -6 -3 -9 7 -34 14 -57 16 -23 2 -44 6 -47 9
-3 3 -22 3 -41 1 -26 -3 -34 0 -28 8 5 8 3 9 -7 3 -18 -11 -52 -16 -46 -7 3 5
-370 8 -828 8 -458 0 -832 -2 -830 -5 2 -3 -5 -6 -15 -6 -10 0 -17 3 -14 7 2
4 -3 14 -11 23 -9 8 -15 18 -14 21 1 3 -2 16 -6 28 -4 12 -9 31 -11 42 -3 11
-9 22 -14 23 -6 2 -10 10 -10 18 0 8 -4 14 -10 14 -5 0 -10 5 -10 11 0 6 -6
16 -12 24 -7 7 -29 32 -48 54 -19 22 -41 41 -48 41 -7 0 -10 5 -7 10 3 6 0 10
-8 10 -8 0 -22 9 -32 20 -10 11 -26 20 -35 20 -10 0 -23 7 -30 15 -7 9 -15 13
-18 10 -3 -3 -11 0 -19 6 -7 6 -13 8 -13 5 0 -4 -8 -2 -18 3 -37 20 -170 28
-247 16 -35 -5 -69 -13 -72 -15 -2 -2 -6 -3 -10 -4 -5 -1 -25 -10 -47 -19 -21
-9 -42 -17 -46 -17 -4 0 -10 -7 -14 -15 -3 -8 -12 -15 -20 -15 -8 0 -38 -22
-67 -50 -29 -27 -49 -50 -46 -50 3 0 -7 -15 -24 -32 -16 -18 -29 -38 -29 -44
0 -6 -7 -17 -15 -24 -9 -7 -14 -19 -11 -27 3 -7 1 -13 -4 -13 -5 0 -12 -16
-16 -35 -3 -19 -9 -33 -13 -31 -3 2 -6 -12 -6 -32 1 -21 -4 -40 -10 -44 -6 -5
-5 -8 3 -8 8 0 10 -5 5 -12 -11 -18 -16 -61 -6 -55 4 3 7 -16 7 -41 -1 -26 2
-51 6 -57 5 -5 9 -14 9 -20 3 -37 15 -75 23 -75 5 0 6 -4 3 -10 -3 -5 -1 -10
4 -10 6 0 10 -4 8 -9 -2 -10 19 -45 45 -73 10 -10 16 -18 13 -18 -3 0 2 -11
11 -25 9 -14 20 -23 24 -20 4 3 15 -6 24 -20 9 -14 24 -25 34 -25 11 0 13 -3
5 -8 -7 -5 5 -14 33 -26 24 -10 44 -22 44 -27 0 -4 16 -11 35 -15 19 -3 38
-10 40 -15 3 -4 12 -6 20 -2 8 3 15 1 15 -4 0 -9 22 -14 82 -16 21 -1 38 -5
38 -10 0 -4 4 -6 8 -3 9 5 106 18 135 17 10 0 21 7 24 15 5 13 7 13 14 2 7
-10 9 -10 9 0 0 6 9 12 20 12 11 0 20 5 20 11 0 5 5 7 10 4 6 -3 10 -2 10 4 0
6 7 8 15 5 8 -4 15 -1 15 4 0 6 9 14 21 17 43 14 199 189 199 224 0 5 8 26 17
47 17 39 19 46 22 62 0 5 82 9 181 9 132 1 178 -2 173 -11 -4 -7 -1 -6 9 2 20
16 230 14 240 -2 5 -8 8 -7 8 2 0 7 14 12 36 12 25 0 33 -3 28 -12 -6 -10 -5
-10 8 0 20 16 230 14 240 -2 5 -8 8 -7 8 2 0 7 14 12 36 12 25 0 33 -3 28 -12
-6 -10 -5 -10 8 0 20 16 230 14 240 -2 5 -8 8 -7 8 2 0 7 14 12 36 12 25 0 33
-3 28 -12 -6 -10 -5 -10 8 -1 20 17 238 16 238 -1 0 -8 3 -7 8 1 9 14 192 13
192 -1 0 -5 6 -4 13 3 8 6 17 7 23 1 5 -5 26 -10 47 -12 20 -1 37 -6 37 -10 0
-4 7 -5 15 -2 8 3 28 -1 45 -9 17 -9 27 -11 24 -5 -4 5 5 2 19 -7 15 -9 31
-14 36 -11 5 4 12 2 16 -4 3 -5 15 -10 26 -10 10 0 19 -5 19 -10 0 -6 3 -9 8
-8 4 1 20 -4 35 -10 16 -7 33 -12 38 -12 5 0 9 -4 9 -9 0 -5 14 -12 31 -16 17
-4 33 -13 35 -20 3 -7 15 -16 27 -19 13 -3 32 -15 45 -26 12 -11 22 -18 22
-15 0 3 6 0 14 -7 8 -7 11 -17 8 -22 -3 -5 -1 -6 5 -3 6 4 28 -9 49 -28 21
-19 43 -35 47 -35 5 0 6 -3 4 -7 -6 -9 19 -34 25 -27 3 2 14 -8 24 -22 10 -15
26 -35 34 -44 55 -62 63 -72 50 -66 -8 4 -5 -1 8 -10 12 -9 22 -23 22 -30 0
-8 4 -14 8 -14 8 0 35 -46 36 -63 1 -4 7 -11 14 -16 7 -4 15 -18 17 -31 2 -13
8 -26 13 -29 13 -9 42 -88 35 -95 -4 -3 -1 -6 5 -6 6 0 17 -27 24 -60 6 -33
15 -60 19 -60 4 0 8 -8 7 -17 0 -10 3 -36 6 -58 4 -22 8 -53 9 -70 l2 -30
-513 -1 c-353 0 -515 3 -521 10 -5 6 -11 28 -15 49 -7 37 -36 96 -64 130 -8 9
-12 17 -8 17 4 0 1 7 -8 15 -8 8 -19 15 -25 15 -6 0 -11 6 -11 14 0 7 -14 24
-32 37 -17 13 -36 29 -42 34 -21 20 -84 55 -98 55 -9 0 -21 7 -28 15 -7 8 -16
13 -20 10 -5 -3 -21 0 -37 6 -42 16 -190 18 -247 3 -27 -7 -53 -11 -58 -8 -4
3 -8 1 -8 -5 0 -5 -13 -12 -30 -16 -16 -4 -30 -11 -30 -16 0 -6 -4 -7 -10 -4
-5 3 -10 2 -10 -4 0 -5 -10 -13 -22 -17 -13 -4 -31 -16 -40 -27 -10 -11 -18
-17 -18 -14 0 11 -56 -48 -63 -66 -4 -10 -11 -15 -17 -12 -5 3 -10 -1 -10 -9
0 -8 -6 -21 -13 -28 -16 -16 -52 -90 -49 -100 1 -5 -2 -8 -7 -8 -6 0 -13 -20
-17 -45 -3 -25 -9 -47 -13 -49 -8 -5 -6 -142 3 -186 4 -19 8 -42 10 -50 1 -8
7 -24 13 -35 6 -11 12 -23 13 -27 1 -4 4 -17 7 -28 3 -11 10 -20 16 -20 6 0 8
-3 4 -6 -3 -4 5 -21 18 -39 14 -17 25 -37 25 -44 0 -7 4 -10 8 -7 5 3 15 -5
22 -18 7 -13 23 -29 36 -35 13 -6 24 -15 24 -20 0 -5 14 -14 30 -21 17 -7 30
-15 30 -19 0 -4 16 -13 35 -20 19 -7 35 -17 35 -23 0 -6 3 -9 6 -6 3 3 30 -1
61 -9 58 -15 213 -24 213 -13 0 4 13 7 29 8 15 0 44 7 64 15 19 9 38 13 41 9
3 -3 6 0 6 7 0 7 5 9 10 6 6 -3 10 -3 10 2 0 4 12 14 28 21 57 26 192 154 192
183 0 5 8 21 17 36 10 14 18 33 20 42 1 9 6 17 11 19 5 1 7 13 5 26 -6 29 31
60 56 46 10 -5 24 -4 33 1 10 6 19 6 23 0 3 -6 15 -7 29 -1 12 4 29 5 36 0 7
-4 18 -6 24 -4 23 9 86 10 86 2 0 -5 8 -4 18 1 10 5 24 6 32 1 7 -4 18 -6 24
-4 23 9 86 10 86 2 0 -5 8 -4 18 1 10 5 24 6 32 1 7 -4 18 -6 24 -4 23 9 86
10 86 2 0 -5 8 -4 18 1 10 5 24 6 32 1 7 -4 18 -6 24 -4 20 8 86 11 86 4 0 -7
59 -4 67 4 3 3 13 1 22 -4 10 -5 23 -5 31 0 9 5 20 4 29 -3 12 -10 13 -9 6 3
-8 13 -7 13 8 1 9 -7 17 -9 17 -4 0 6 12 8 28 6 60 -8 83 -9 94 -2 7 4 19 4
28 -1 9 -5 22 -5 30 0 9 5 20 4 29 -3 12 -10 13 -9 6 3 -8 13 -7 13 8 1 9 -7
17 -9 17 -4 0 6 12 8 28 6 55 -8 77 -8 93 -2 8 4 21 4 29 -1 8 -5 21 -5 31 1
11 6 20 5 24 -1 3 -5 15 -6 29 0 12 4 29 5 36 0 7 -4 18 -6 24 -4 23 9 86 10
86 2 0 -5 8 -4 18 1 10 5 24 6 32 1 7 -4 18 -6 24 -4 26 10 86 10 90 0 3 -8 7
-8 13 -1 4 6 17 9 28 8 66 -8 86 -8 97 -2 7 4 19 4 28 -1 9 -5 22 -5 30 0 9 5
20 4 29 -3 12 -10 13 -9 6 3 -8 13 -7 13 8 1 9 -7 17 -10 17 -5 0 5 15 9 34 9
19 0 32 -3 29 -7 -2 -5 1 -8 6 -8 6 0 11 4 11 9 0 4 12 6 28 4 60 -8 83 -9 94
-2 7 4 19 4 28 -1 9 -5 22 -5 30 0 9 5 20 4 29 -3 12 -10 13 -9 6 3 -8 13 -7
13 8 1 9 -7 17 -9 17 -4 0 6 12 8 28 6 15 -2 33 -4 40 -4 6 1 20 1 30 1 28 0
65 1 95 4 15 1 27 -2 27 -6 0 -5 8 -4 18 1 10 5 24 6 32 1 7 -4 18 -6 24 -4
20 8 86 11 86 4 0 -7 59 -4 67 4 3 3 13 1 22 -4 10 -5 23 -5 31 0 9 5 20 4 29
-3 12 -10 13 -9 6 3 -8 13 -7 13 8 1 9 -7 17 -9 17 -4 0 11 42 9 61 -3 8 -4 9
-3 5 4 -4 7 -2 12 3 12 6 0 11 -6 11 -12 0 -8 3 -9 8 -3 8 11 41 13 58 2 6 -3
14 -3 18 0 4 4 17 8 29 9 12 1 53 5 90 8 37 3 76 10 87 16 10 5 25 7 33 4 8
-3 18 -1 21 4 3 5 35 16 70 23 36 7 63 16 61 20 -3 4 12 10 32 14 20 3 46 13
58 21 12 8 25 11 28 7 4 -3 7 -1 7 5 0 7 9 12 20 12 11 0 23 6 26 14 3 8 19
18 35 21 16 4 29 11 29 16 0 6 4 8 9 5 5 -4 11 -3 13 1 5 12 97 73 109 73 6 0
7 5 4 10 -3 6 0 10 8 10 7 0 33 18 56 40 23 22 46 40 51 40 6 0 10 7 10 15 0
8 5 15 10 15 6 0 19 9 30 20 11 11 18 20 15 20 -3 0 12 16 32 35 20 19 34 35
30 35 -3 0 9 16 29 35 19 19 31 35 28 35 -4 0 3 11 16 25 13 14 20 25 17 25
-4 0 2 9 13 20 11 11 20 27 20 35 0 8 5 15 10 15 6 0 10 7 10 15 0 8 4 15 10
15 5 0 9 3 9 8 -3 20 2 32 12 27 6 -4 9 -1 8 6 -1 8 4 30 12 49 7 19 12 39 11
43 -1 5 2 6 7 3 9 -6 16 9 26 51 2 10 11 37 19 60 9 22 18 54 21 70 7 32 10
42 18 63 3 8 5 22 5 30 0 8 4 35 8 60 4 25 7 57 7 71 l1 25 148 1 c107 0 146
-3 141 -11 -5 -7 -2 -7 8 1 19 15 171 15 181 -1 6 -8 8 -7 8 2 0 9 26 12 105
11 106 -2 109 -4 106 -41 -1 -10 2 -18 6 -18 5 0 10 -19 12 -42 1 -23 4 -44 6
-47 5 -9 18 -140 17 -183 0 -26 4 -36 12 -31 7 4 7 1 -1 -8 -10 -12 -10 -18
-1 -27 8 -8 9 -12 1 -12 -12 0 -12 -18 0 -37 5 -7 4 -13 -1 -13 -5 0 -9 -7 -9
-15 0 -8 5 -15 11 -15 7 0 8 -3 1 -8 -6 -4 -11 -32 -12 -62 -1 -55 -9 -138
-18 -195 -3 -16 -7 -43 -10 -60 -2 -16 -10 -56 -18 -87 -8 -32 -12 -60 -9 -63
3 -3 0 -5 -7 -5 -7 0 -9 -4 -6 -10 3 -5 3 -16 -2 -22 -4 -7 -9 -19 -10 -25 -2
-7 -5 -19 -7 -25 -2 -7 -7 -28 -11 -45 -4 -18 -12 -33 -18 -33 -6 0 -7 -3 -4
-7 4 -3 2 -12 -3 -19 -6 -6 -9 -18 -8 -25 2 -8 -2 -13 -9 -12 -6 1 -10 -5 -9
-14 2 -9 -3 -28 -11 -42 -7 -15 -13 -31 -13 -38 0 -6 -3 -13 -7 -15 -5 -1 -19
-28 -33 -58 -14 -30 -27 -57 -31 -60 -3 -3 -16 -26 -29 -52 -13 -26 -27 -45
-32 -42 -4 3 -8 -1 -8 -9 0 -8 -13 -33 -30 -55 -16 -23 -30 -46 -30 -52 0 -5
-4 -10 -10 -10 -5 0 -16 -12 -24 -27 -21 -40 -82 -103 -92 -95 -4 4 -4 2 -1
-4 4 -6 -9 -28 -28 -48 -19 -21 -35 -42 -35 -47 0 -5 -3 -8 -8 -6 -9 3 -58
-46 -55 -55 2 -5 -4 -8 -12 -8 -8 0 -15 -4 -15 -10 0 -5 -6 -10 -13 -10 -7 0
-24 -13 -37 -30 -14 -16 -31 -29 -37 -30 -7 0 -13 -4 -13 -10 0 -5 -8 -10 -17
-10 -13 0 -14 -3 -5 -8 8 -6 1 -13 -23 -22 -19 -7 -32 -17 -30 -21 3 -4 -7
-10 -20 -13 -14 -4 -23 -11 -20 -16 3 -6 -1 -10 -9 -10 -8 0 -21 -6 -28 -13
-7 -7 -28 -20 -45 -28 -18 -7 -33 -17 -33 -21 0 -5 -7 -8 -16 -8 -9 0 -12 -5
-8 -12 4 -7 4 -10 0 -6 -8 7 -128 -51 -134 -64 -2 -5 -10 -8 -18 -8 -8 0 -33
-9 -55 -20 -22 -12 -44 -18 -49 -15 -6 4 -13 0 -16 -9 -3 -8 -12 -12 -20 -9
-8 3 -14 0 -14 -7 0 -6 -4 -9 -10 -5 -5 3 -17 1 -27 -4 -36 -19 -98 -38 -115
-36 -10 2 -18 -1 -18 -7 0 -6 -11 -8 -25 -6 -15 3 -22 1 -18 -5 4 -6 0 -8 -9
-4 -9 3 -20 1 -24 -3 -5 -5 -24 -10 -42 -12 -17 -1 -32 -5 -32 -8 0 -3 -9 -6
-20 -7 -13 -1 -18 2 -13 10 5 9 3 9 -8 0 -15 -12 -80 -24 -140 -25 -23 0 -36
-4 -33 -10 4 -6 0 -7 -12 -1 -11 5 -30 8 -44 7 -55 -6 -139 -6 -149 1 -6 3
-11 1 -11 -6 0 -8 -4 -8 -15 1 -12 10 -15 10 -15 0 0 -10 -3 -10 -15 0 -8 7
-15 9 -15 4 0 -12 -73 -11 -82 1 -5 6 -8 4 -8 -5 0 -13 -1 -13 -10 0 -5 8 -10
10 -10 4 0 -8 -11 -9 -35 -4 -22 5 -35 4 -35 -2 0 -6 -6 -5 -15 2 -12 10 -15
10 -15 0 0 -10 -3 -10 -15 0 -9 8 -15 8 -15 2 0 -7 -10 -8 -30 -2 -20 6 -30 5
-30 -2 0 -6 -6 -6 -15 2 -10 8 -15 9 -15 1 0 -7 -8 -8 -25 -1 -14 5 -25 6 -25
1 0 -5 -18 -5 -40 -1 -25 5 -40 4 -40 -3 0 -5 -7 -4 -15 3 -10 8 -15 9 -15 1
0 -7 -8 -8 -25 -1 -14 5 -25 6 -25 2 0 -8 -85 -6 -107 3 -7 2 -13 -1 -13 -7 0
-7 -5 -6 -15 2 -12 10 -15 10 -15 0 0 -10 -3 -10 -15 0 -8 7 -15 9 -15 4 0
-12 -73 -11 -82 1 -5 6 -8 4 -8 -5 0 -13 -1 -13 -10 0 -5 8 -10 10 -10 4 0 -8
-11 -9 -35 -4 -22 5 -35 4 -35 -2 0 -6 -6 -5 -15 2 -12 10 -15 10 -15 0 0 -10
-3 -10 -15 0 -8 7 -15 9 -15 4 0 -12 -73 -11 -82 1 -5 6 -8 4 -8 -5 0 -13 -1
-13 -10 0 -5 8 -10 10 -10 4 0 -8 -11 -9 -35 -4 -22 5 -35 4 -35 -2 0 -6 -6
-5 -15 2 -12 10 -15 10 -15 0 0 -10 -3 -10 -15 0 -8 7 -15 9 -15 4 0 -12 -73
-11 -82 1 -5 6 -8 4 -8 -5 0 -13 -1 -13 -10 0 -5 8 -10 10 -10 4 0 -8 -11 -9
-35 -4 -24 5 -35 4 -35 -4 0 -6 -7 -3 -14 6 -7 10 -16 15 -19 11 -4 -3 -8 -1
-8 5 -7 66 -122 220 -225 302 -62 50 -77 59 -85 54 -5 -3 -9 3 -9 12 0 10 -3
14 -6 11 -4 -4 -20 3 -35 14 -16 11 -29 17 -29 12 0 -4 -4 -3 -8 2 -10 15
-119 55 -148 55 -13 0 -24 4 -24 9 0 5 -8 8 -17 6 -10 -1 -24 3 -32 9 -12 9
-13 8 -6 -3 6 -11 5 -12 -6 -5 -27 17 -265 22 -254 4 2 -3 -6 -6 -18 -5 -12 1
-28 -2 -34 -8 -9 -6 -13 -6 -13 3 0 9 -3 10 -14 1 -7 -6 -25 -12 -40 -13 -14
-1 -26 -6 -26 -10 0 -4 -7 -5 -15 -2 -8 4 -15 2 -15 -4 0 -9 -46 -27 -62 -24
-3 1 -12 -5 -18 -13 -7 -8 -18 -15 -26 -15 -7 0 -19 -6 -26 -13 -18 -17 -73
-52 -73 -46 -1 2 -14 -9 -31 -26 -17 -16 -39 -37 -50 -46 -27 -23 -84 -89 -84
-99 0 -4 -7 -11 -16 -14 -8 -3 -12 -10 -9 -16 3 -5 2 -10 -4 -10 -5 0 -16 -12
-24 -27 -8 -16 -22 -41 -31 -58 -9 -16 -16 -37 -16 -45 0 -13 -1 -13 -11 0 -8
12 -10 12 -8 -5 1 -11 -4 -33 -11 -50 -7 -16 -12 -36 -11 -42 1 -7 -2 -13 -8
-13 -5 0 -8 -8 -6 -17 1 -10 0 -22 -4 -28 -8 -14 -11 -33 -14 -92 -1 -29 -5
-53 -9 -53 -8 0 -5 -21 5 -37 4 -6 3 -14 -3 -18 -6 -4 -7 -12 -3 -18 7 -11 13
-78 13 -139 0 -16 5 -28 10 -28 6 0 9 -4 6 -9 -6 -9 33 -120 60 -172 8 -16 15
-32 16 -36 1 -5 8 -14 15 -21 7 -7 13 -20 13 -28 0 -8 5 -12 10 -9 6 3 10 0
10 -7 0 -7 15 -31 33 -52 44 -54 117 -129 117 -120 0 4 8 -3 19 -14 10 -12 21
-22 25 -22 8 0 31 -18 54 -43 9 -9 24 -17 34 -17 9 0 24 -8 34 -18 10 -9 20
-17 23 -16 3 1 20 -4 36 -10 17 -5 33 -9 38 -8 4 1 7 -2 7 -6 0 -5 6 -9 13
-10 6 0 23 -3 37 -7 14 -4 35 -7 48 -8 12 -1 22 -4 22 -7 0 -16 270 -16 299
-1 19 11 22 11 15 -1 -6 -11 -5 -11 9 1 9 7 17 11 17 8 0 -6 66 10 95 23 39
19 80 33 88 32 4 -1 7 3 7 9 0 5 4 8 9 4 5 -3 16 2 24 10 9 8 20 15 26 15 6 0
11 5 11 11 0 5 5 7 10 4 6 -3 13 1 16 9 3 9 10 14 15 11 4 -3 13 4 19 15 6 11
17 20 25 20 7 0 23 12 34 26 12 15 21 23 21 18 0 -5 8 3 18 19 10 15 22 24 25
20 4 -3 7 -1 7 5 0 6 12 23 28 38 15 15 20 23 12 20 -8 -4 -4 2 9 13 13 12 20
21 16 21 -3 0 0 7 7 15 31 34 36 43 31 49 -4 3 -1 6 5 6 7 0 11 3 10 7 -3 14
15 48 35 65 22 20 31 23 22 8 -8 -13 8 -13 22 1 8 8 13 8 17 0 4 -6 12 -11 17
-11 6 0 8 4 5 8 -3 5 1 9 9 9 8 0 12 -4 9 -9 -8 -12 10 -10 23 3 8 8 13 8 17
0 4 -6 12 -11 17 -11 6 0 7 6 3 13 -6 9 -5 9 7 0 12 -10 18 -10 29 0 7 6 10 7
7 1 -9 -15 55 -16 65 -1 6 9 8 8 8 -2 0 -11 3 -11 17 0 9 8 14 9 10 3 -4 -7 2
-12 18 -12 14 1 25 6 25 12 0 6 4 6 9 -2 4 -8 12 -14 16 -14 4 0 12 6 16 14 6
8 9 9 9 1 0 -13 18 -12 39 1 9 6 12 5 8 -1 -4 -6 4 -10 18 -10 16 0 22 4 18
11 -4 7 -1 6 8 -1 12 -10 18 -10 29 0 7 6 10 7 7 1 -9 -15 55 -16 65 -1 6 9 8
8 8 -2 0 -11 3 -11 17 0 9 8 14 9 10 3 -4 -7 2 -12 18 -12 14 1 25 6 25 12 0
6 4 6 9 -2 11 -17 21 -17 32 0 6 8 9 9 9 1 0 -13 18 -12 39 1 9 6 12 5 8 -1
-4 -6 4 -10 18 -10 14 0 23 3 20 7 -2 3 2 7 10 7 8 0 12 -4 9 -9 -8 -12 10
-10 23 3 8 8 13 8 17 0 4 -6 12 -11 17 -11 6 0 8 4 5 8 -3 5 1 9 9 9 8 0 12
-4 9 -9 -8 -12 10 -10 23 3 8 8 13 8 17 0 4 -6 12 -11 17 -11 6 0 8 4 5 8 -3
5 1 9 9 9 8 0 12 -4 9 -9 -8 -12 10 -10 23 3 8 8 13 8 17 0 4 -6 12 -11 17
-11 6 0 8 4 5 8 -3 5 1 9 9 9 8 0 12 -4 9 -9 -8 -12 10 -10 23 3 8 8 13 8 17
0 10 -15 43 -14 49 2 4 9 6 8 6 -2 1 -11 4 -11 18 0 9 8 14 9 10 3 -4 -7 2
-11 18 -11 14 0 25 5 25 11 0 6 4 6 9 -2 11 -17 21 -17 32 0 6 8 9 9 9 1 0
-13 18 -12 39 1 9 6 12 5 8 -1 -4 -6 7 -10 26 -11 17 0 35 5 39 11 6 9 8 8 8
-2 0 -11 3 -11 17 0 9 8 14 9 10 3 -4 -7 2 -11 18 -11 14 0 25 5 25 11 0 6 4
6 9 -2 11 -17 21 -17 32 0 6 9 9 9 9 1 0 -6 13 -11 30 -11 17 1 27 5 23 11 -4
6 -1 7 8 1 21 -13 39 -14 39 -1 0 7 5 5 10 -3 5 -8 10 -10 10 -3 0 13 18 12
39 -1 9 -6 12 -5 8 1 -4 6 14 11 46 12 29 1 63 3 77 6 14 2 50 6 80 10 75 8
83 9 99 19 10 7 12 6 6 -4 -6 -10 -4 -11 6 -4 8 4 19 9 24 10 6 1 26 5 45 8
19 4 50 11 69 16 19 5 38 7 43 4 4 -3 8 0 8 7 0 6 8 9 20 6 11 -3 20 -2 20 3
0 4 17 11 37 15 21 4 41 12 45 18 6 9 8 9 8 0 0 -8 9 -7 30 3 16 9 42 17 57
20 15 3 31 10 34 16 4 6 12 7 18 4 6 -4 11 -2 11 3 0 6 9 11 20 11 11 0 20 6
20 13 0 8 4 7 10 -3 6 -9 10 -10 10 -3 0 10 39 29 49 24 2 -2 7 3 11 9 4 7 19
13 33 13 14 1 23 4 21 6 -2 2 34 23 81 46 46 23 90 47 98 53 8 7 17 9 20 5 4
-3 7 0 7 7 0 7 3 11 6 7 4 -3 12 -1 20 6 33 30 42 35 48 30 3 -4 6 -2 6 4 0 6
8 13 18 17 24 8 56 29 65 43 4 7 15 9 25 6 9 -3 14 -3 10 2 -4 4 12 21 35 38
23 17 45 35 49 41 4 6 8 7 8 2 0 -5 8 1 19 12 10 12 21 22 25 22 3 0 14 8 25
18 10 9 42 37 71 62 93 81 125 113 122 121 -1 5 3 9 8 9 6 0 26 16 46 35 19
19 31 35 27 35 -4 0 6 9 22 20 17 11 26 20 22 20 -5 0 4 13 20 28 15 16 39 43
53 61 14 18 31 39 38 47 7 8 10 14 6 14 -4 0 1 6 12 14 10 8 19 18 19 23 0 8
12 25 47 63 9 10 14 21 11 24 -4 3 -2 6 3 6 5 0 18 17 29 38 11 20 27 45 35
54 8 9 26 39 39 65 14 26 33 60 43 75 10 14 18 33 18 41 0 9 3 17 8 19 11 5
42 67 42 84 0 9 5 12 12 8 6 -4 8 -3 5 3 -3 5 0 21 8 36 8 15 12 27 9 27 -2 0
3 11 12 25 9 14 13 25 10 25 -4 0 0 10 8 22 9 12 16 33 16 46 0 14 4 21 11 16
6 -4 10 1 8 12 -1 11 3 32 9 47 7 15 11 31 10 35 -1 4 6 25 16 47 9 22 18 48
19 58 1 9 6 17 12 17 5 0 4 4 -4 9 -9 6 -10 11 -2 15 6 4 9 12 6 17 -4 5 -2 9
3 9 5 0 9 6 9 13 0 6 5 37 12 67 20 96 22 104 27 135 10 60 14 101 17 162 1
33 4 60 7 58 3 -2 5 35 5 82 0 47 3 87 8 90 4 2 4 9 1 15 -11 17 -10 52 1 60
6 5 5 8 -4 8 -11 0 -11 3 -1 15 7 8 8 15 3 15 -5 0 -8 20 -7 45 1 25 -2 43 -6
40 -6 -4 -6 20 0 50 1 6 1 12 0 15 -1 3 -4 25 -5 50 -4 61 -19 173 -32 230 -3
14 -7 36 -8 50 -2 14 -4 25 -5 25 -2 0 -11 37 -12 53 -1 6 -6 12 -12 12 -6 0
-4 5 4 10 9 6 11 10 3 10 -7 0 -10 7 -7 15 4 8 1 15 -5 15 -7 0 -11 6 -10 13
2 6 -10 53 -26 102 -16 50 -28 93 -27 98 1 4 -3 7 -8 7 -6 0 -10 6 -8 13 1 6
-3 21 -9 32 -6 11 -11 22 -11 25 -1 9 -23 65 -46 115 -13 28 -27 60 -30 73 -4
12 -11 22 -16 22 -5 0 -11 14 -15 30 -4 17 -11 30 -17 30 -6 0 -9 3 -5 6 3 4
-1 13 -9 21 -8 8 -12 19 -9 24 4 5 2 9 -3 9 -5 0 -17 18 -27 40 -10 22 -21 40
-25 40 -6 0 -20 25 -31 55 -4 10 -24 37 -46 60 -7 7 -9 15 -6 19 3 3 -2 8 -11
12 -9 3 -16 12 -16 20 0 8 -4 14 -9 14 -5 0 -12 8 -15 18 -4 9 -24 37 -46 61
-22 25 -40 48 -40 52 0 4 -20 27 -45 52 -25 26 -45 50 -45 56 0 5 -9 12 -20
16 -11 3 -19 9 -17 13 3 11 -192 195 -268 253 -16 13 -32 26 -35 29 -3 3 -22
16 -42 30 -21 14 -38 29 -38 33 0 5 -4 5 -10 2 -6 -3 -10 -1 -10 5 0 6 -8 14
-17 18 -44 18 -92 55 -86 65 3 5 2 7 -4 4 -6 -4 -31 7 -57 23 -26 17 -53 30
-61 30 -8 0 -15 4 -15 9 0 5 -16 15 -34 22 -19 7 -33 16 -30 21 3 5 2 7 -3 6
-4 -2 -33 9 -63 24 -30 14 -77 36 -105 48 -27 12 -62 28 -78 35 -19 10 -25 10
-20 2 3 -7 -2 -4 -13 5 -10 9 -22 17 -27 17 -20 2 -63 15 -67 22 -3 4 -18 9
-35 12 -16 3 -50 12 -75 20 -44 14 -89 27 -120 33 -9 2 -44 10 -78 18 -34 8
-62 12 -62 9 0 -3 -6 -1 -12 4 -7 5 -25 9 -40 8 -16 0 -28 4 -28 9 0 6 -5 5
-12 -2 -8 -8 -16 -8 -32 0 -21 12 -51 16 -163 19 -35 2 -63 6 -63 11 0 5 -9 4
-20 -2 -14 -8 -20 -8 -20 0 0 7 -6 8 -19 1 -10 -6 -21 -8 -24 -5 -8 9 -61 11
-89 3 -16 -4 -28 -4 -28 -1 0 10 -62 8 -78 -2 -7 -4 -18 -4 -24 0 -16 10 -75
11 -110 2 -16 -3 -28 -3 -28 0 0 10 -62 8 -78 -2 -7 -4 -18 -4 -24 0 -16 10
-75 11 -110 2 -16 -3 -28 -4 -28 0 0 10 -52 8 -67 -1 -8 -5 -13 -4 -13 3 0 7
-6 8 -19 1 -10 -6 -21 -8 -24 -5 -5 6 -103 9 -122 4 -5 -1 -14 -1 -20 0 -13 3
-127 3 -140 0 -5 -1 -14 -1 -20 0 -13 3 -127 3 -140 0 -5 -1 -14 -1 -20 0 -23
5 -134 2 -143 -4 -6 -4 -13 -3 -16 2 -5 8 -98 7 -121 -2 -8 -3 -15 -2 -15 2 0
10 -62 8 -77 -1 -12 -8 -56 41 -48 53 3 4 -2 13 -10 20 -8 7 -15 17 -15 22 0
11 -38 64 -67 96 -13 12 -23 30 -23 39 0 9 -3 14 -6 11 -3 -3 -24 14 -46 38
-22 24 -45 41 -51 37 -5 -3 -8 -2 -5 3 7 11 -17 35 -26 27 -3 -3 -8 2 -12 11
-3 9 -10 13 -15 10 -5 -3 -9 -1 -9 4 0 6 -11 13 -25 16 -14 4 -25 10 -25 15 0
5 -16 15 -35 21 -22 7 -33 16 -28 23 3 7 3 9 -2 5 -4 -4 -24 -1 -44 7 -20 7
-45 16 -56 21 -34 12 -43 14 -145 29 -74 11 -158 11 -235 -2z m85 -445 c0 16
94 11 129 -7 13 -7 21 -8 17 -2 -9 13 81 -26 119 -53 45 -32 103 -93 110 -116
3 -11 10 -20 14 -20 9 0 37 -89 33 -102 -1 -5 1 -8 6 -8 12 0 14 -128 2 -151
-9 -16 -9 -20 0 -14 7 4 5 -6 -4 -24 -9 -17 -14 -31 -11 -31 4 0 3 -6 -2 -12
-4 -7 -8 -20 -10 -28 -1 -8 -9 -20 -17 -26 -9 -6 -13 -14 -9 -17 3 -4 1 -7 -5
-7 -7 0 -12 -5 -12 -10 0 -17 -71 -81 -82 -73 -6 3 -8 1 -5 -4 12 -20 -142
-91 -164 -77 -5 3 -9 1 -9 -4 0 -15 -161 -4 -176 11 -4 4 -15 7 -24 7 -9 0
-37 13 -62 29 -25 16 -48 29 -50 28 -1 -1 -2 0 -1 2 1 2 -9 12 -22 23 -27 21
-82 97 -87 119 -2 8 -7 17 -11 20 -4 3 -9 16 -10 27 -1 12 -4 22 -7 22 -4 0
-6 10 -5 23 1 12 0 26 -3 31 -10 17 -8 86 3 86 5 0 4 4 -4 9 -9 6 -10 11 -2
15 6 4 9 11 6 16 -3 5 0 12 6 16 8 4 7 9 -2 15 -10 6 -11 9 -1 9 6 0 12 9 12
19 0 11 6 26 13 33 6 7 13 20 15 28 2 8 10 22 18 31 8 9 11 19 7 22 -3 4 1 7
11 7 9 0 15 4 12 8 -3 5 6 15 19 22 13 7 22 17 20 21 -3 4 4 10 15 14 11 3 27
13 35 22 9 8 21 16 28 17 6 2 24 8 40 14 15 7 39 14 53 16 15 3 29 8 32 11 3
3 9 0 14 -7 6 -10 8 -10 8 0z m-3030 -1869 c0 11 5 9 22 -5 12 -10 18 -13 14
-6 -4 6 -3 12 1 12 5 0 15 -6 22 -12 11 -11 12 -10 6 1 -5 9 1 8 18 -4 14 -9
30 -17 34 -17 14 -1 57 -32 85 -60 14 -15 29 -25 32 -22 3 2 4 1 1 -2 -2 -4 4
-19 14 -33 26 -39 41 -81 44 -132 2 -25 7 -51 12 -59 5 -9 4 -11 -3 -6 -8 5
-12 -2 -13 -18 -1 -14 -3 -30 -4 -36 -1 -5 -3 -15 -4 -21 0 -5 -6 -7 -13 -3
-7 4 -8 3 -4 -5 4 -6 -3 -28 -15 -48 -23 -36 -59 -78 -59 -68 0 3 -9 -4 -20
-15 -11 -11 -25 -20 -31 -20 -6 0 -17 -6 -24 -14 -15 -14 -100 -31 -145 -28
-29 2 -74 9 -77 12 -2 2 -7 4 -13 5 -5 1 -13 4 -17 5 -5 1 -11 2 -15 1 -5 0
-8 3 -8 8 0 5 -9 12 -20 16 -24 8 -121 105 -104 105 3 0 -2 10 -10 22 -9 12
-16 33 -16 45 0 13 -4 23 -8 23 -13 0 -11 113 2 129 9 12 8 13 -2 7 -12 -7
-12 -5 -1 15 7 13 14 26 14 29 6 25 27 60 35 60 5 0 10 9 10 19 0 11 9 23 20
26 11 4 18 11 15 16 -4 5 0 9 8 9 8 0 17 6 20 13 3 7 24 19 48 27 24 7 49 16
54 20 6 3 25 6 43 6 17 -1 32 4 32 9 0 6 5 3 10 -5 8 -12 10 -12 10 -1z m4567
-12 c3 -4 13 -1 21 6 13 9 14 9 8 0 -5 -9 -1 -13 12 -13 11 0 25 -7 32 -15 7
-9 15 -13 17 -11 11 11 84 -64 76 -77 -3 -6 -1 -7 4 -4 6 4 19 -5 28 -19 12
-18 13 -24 4 -19 -8 3 -6 0 3 -8 10 -7 20 -32 24 -55 4 -23 10 -39 14 -37 5 3
6 -3 4 -12 -2 -10 -5 -36 -8 -58 -5 -39 -13 -80 -16 -80 -1 0 -3 -9 -5 -19 -2
-10 -10 -23 -17 -27 -7 -5 -10 -9 -6 -9 9 0 -17 -34 -54 -69 -39 -37 -58 -53
-58 -46 0 3 -11 -2 -25 -11 -14 -9 -25 -13 -25 -9 0 4 -6 3 -12 -2 -31 -24
-228 -8 -228 19 0 5 -4 7 -9 3 -5 -3 -26 11 -47 30 -20 19 -41 35 -45 35 -5 0
-9 7 -9 15 0 7 -7 18 -16 23 -9 5 -16 12 -15 15 1 9 -9 38 -21 63 -13 27 -17
154 -6 154 5 0 7 4 4 9 -3 5 1 22 9 37 8 16 15 34 15 41 0 7 8 17 18 22 9 6
13 11 9 11 -12 0 59 70 72 70 6 0 11 4 11 8 0 12 47 32 75 32 14 0 25 4 25 9
0 6 9 8 20 6 11 -2 20 0 20 4 0 9 87 -2 97 -12z m-2670 -1310 c70 -36 82 -44
76 -50 -3 -4 1 -7 10 -7 10 0 17 -7 17 -15 0 -8 5 -15 10 -15 6 0 18 -17 28
-37 9 -21 20 -40 23 -43 23 -18 25 -180 3 -230 -4 -8 -7 -18 -6 -21 0 -3 -10
-18 -24 -34 -13 -15 -24 -32 -24 -36 0 -12 -94 -77 -123 -84 -15 -4 -27 -11
-27 -15 0 -4 -11 -6 -25 -5 -14 2 -25 -1 -25 -6 0 -6 -5 -7 -12 -3 -7 4 -29 7
-50 7 -21 0 -38 2 -38 6 0 3 -10 7 -23 8 -24 1 -61 16 -91 35 -45 30 -106 107
-106 133 0 8 -5 15 -12 15 -6 0 -8 3 -5 6 3 4 2 16 -4 27 -9 15 -8 18 3 11 11
-6 11 -5 -1 9 -7 9 -10 17 -7 17 4 0 2 9 -4 20 -8 14 -8 20 0 20 8 0 8 6 0 20
-7 12 -7 20 -1 20 5 0 8 9 6 20 -2 11 0 20 4 20 4 0 8 7 9 15 1 8 3 22 4 30 1
8 5 15 10 15 4 0 8 5 8 10 0 12 9 24 54 73 16 18 33 31 37 29 5 -1 12 5 15 13
3 8 10 12 15 9 5 -3 9 0 9 5 0 6 9 11 19 11 11 0 22 4 25 8 2 4 22 9 42 10 21
2 40 4 41 6 7 7 115 -14 140 -27z m1193 -1493 c8 -2 32 -5 53 -7 20 -3 43 -10
51 -16 7 -6 16 -8 20 -4 4 4 10 3 14 -2 4 -6 24 -19 45 -30 40 -21 63 -41 112
-96 31 -34 34 -40 43 -71 2 -10 8 -18 12 -18 5 0 6 -10 2 -22 -3 -14 -1 -19 6
-14 7 4 10 -1 7 -14 -2 -11 2 -20 8 -20 7 0 6 -4 -3 -10 -10 -6 -11 -10 -2
-10 15 0 17 -126 2 -135 -8 -5 -7 -11 1 -21 8 -10 8 -14 0 -14 -6 0 -11 -9
-11 -19 0 -11 -4 -23 -10 -26 -5 -3 -10 -13 -10 -21 0 -15 -29 -60 -62 -98
-10 -11 -18 -25 -18 -30 0 -6 -5 -4 -10 4 -8 13 -10 13 -10 -1 0 -9 -11 -22
-25 -29 -14 -7 -25 -17 -25 -22 0 -4 -9 -8 -20 -8 -11 0 -20 -4 -20 -9 0 -5
-26 -15 -57 -21 -32 -7 -66 -16 -77 -22 -10 -5 -16 -6 -13 -1 3 4 -18 8 -46 9
-68 1 -120 12 -129 27 -4 7 -8 9 -8 5 0 -11 -80 32 -80 42 0 5 -9 12 -20 15
-11 4 -18 11 -15 16 4 5 -1 9 -9 9 -9 0 -16 7 -16 16 0 8 -4 13 -9 9 -5 -3
-12 4 -16 15 -3 11 -11 20 -17 20 -5 0 -8 6 -5 14 3 8 -1 17 -10 20 -9 4 -13
9 -10 12 3 3 -1 17 -8 31 -8 15 -12 30 -9 35 3 4 1 8 -3 8 -5 0 -9 8 -9 18 0
9 -4 36 -7 60 -4 27 -3 41 3 37 7 -4 7 3 0 19 -7 19 -6 26 2 26 6 0 8 3 5 7
-4 3 -2 12 4 20 9 10 8 13 -2 13 -12 0 -12 2 -1 9 8 4 13 11 11 15 -4 12 24
76 33 76 4 0 8 7 8 16 0 9 15 31 34 50 18 18 31 36 28 39 -3 3 2 5 11 5 8 0
17 4 19 9 2 5 10 11 18 13 8 2 23 11 34 20 10 10 23 15 27 12 4 -2 12 3 17 12
6 10 16 15 25 11 9 -3 19 -2 22 3 4 6 26 10 51 10 32 0 43 3 38 12 -5 7 -3 8
7 2 8 -4 21 -9 29 -10z"/>
<path d="M8202 3121 c-6 -3 -27 -6 -47 -5 -20 1 -34 -1 -31 -4 3 -3 -3 -11
-14 -19 -11 -8 -17 -20 -14 -28 4 -8 1 -15 -6 -15 -8 0 -9 -4 -3 -12 5 -7 9
-20 8 -28 -1 -17 25 -39 52 -43 10 -1 24 -7 32 -11 9 -6 12 -5 8 1 -4 7 9 11
34 11 56 1 79 23 76 74 -2 24 -10 45 -20 53 -9 6 -15 15 -12 18 3 4 2 5 -1 3
-3 -3 -16 -1 -28 4 -13 4 -28 5 -34 1z"/>
<path d="M8717 3123 c-4 -4 -13 -8 -20 -9 -50 -8 -110 -21 -114 -24 -2 -2 -7
-3 -13 -4 -5 0 -19 -9 -30 -18 -11 -10 -25 -18 -30 -18 -6 0 -10 -7 -10 -16 0
-8 -4 -13 -9 -9 -5 3 -15 -12 -21 -32 -7 -21 -16 -42 -19 -48 -4 -5 -7 -27 -6
-47 0 -21 -2 -38 -6 -38 -3 0 -6 -7 -6 -15 0 -8 4 -15 9 -15 5 0 6 -6 1 -12
-12 -20 -12 -38 -1 -38 6 0 5 -6 -2 -15 -10 -12 -10 -15 0 -15 10 0 10 -3 1
-14 -8 -10 -9 -16 -1 -21 6 -3 7 -12 3 -18 -11 -18 -11 -47 0 -47 5 0 4 -7 -3
-15 -10 -12 -10 -15 0 -15 10 0 10 -3 0 -15 -10 -12 -10 -15 0 -15 10 0 10 -3
1 -14 -8 -10 -9 -16 -1 -21 6 -3 7 -12 3 -18 -11 -18 -11 -47 0 -47 5 0 4 -7
-3 -15 -10 -12 -10 -15 0 -15 10 0 10 -3 0 -15 -10 -12 -10 -15 0 -15 10 0 10
-3 1 -14 -8 -10 -9 -16 -1 -21 6 -3 7 -12 3 -18 -11 -19 -11 -47 1 -47 6 0 4
-5 -4 -10 -9 -6 -11 -10 -3 -10 7 0 10 -7 6 -17 -4 -10 -2 -14 5 -9 6 3 13 3
15 -1 8 -13 150 -8 155 5 2 7 9 9 15 5 7 -3 9 -3 5 2 -4 4 -3 14 3 21 7 8 7
14 -1 19 -8 5 -8 10 0 20 8 10 8 15 0 20 -8 5 -8 11 1 21 6 8 7 14 2 14 -5 0
-10 7 -10 15 0 8 5 15 11 15 6 0 5 4 -2 9 -8 4 -14 12 -14 16 0 4 6 12 14 16
8 6 9 9 1 9 -12 0 -12 17 0 37 4 6 3 14 -3 18 -5 3 -10 11 -10 16 0 6 6 7 13
3 9 -6 9 -5 0 7 -10 12 -10 18 -1 27 8 8 8 12 1 12 -12 0 -12 41 1 55 5 6 52
9 112 7 69 -1 104 1 104 8 0 6 5 8 10 5 6 -3 11 2 11 12 1 10 3 30 5 46 1 15
-1 25 -5 23 -5 -3 -6 6 -3 19 5 28 14 27 -141 27 -54 1 -100 5 -103 9 -3 5 0
9 7 9 8 0 8 4 -1 15 -9 11 -9 15 -1 15 7 0 10 4 6 9 -3 5 2 28 11 50 14 35 21
41 60 49 24 5 85 8 134 6 58 -2 90 0 90 7 0 6 5 7 10 4 9 -6 16 27 10 50 -2 6
-3 20 -3 33 -1 17 -8 25 -29 29 -15 3 -26 8 -23 12 2 4 -35 7 -83 6 -48 0 -90
3 -93 8 -3 4 -9 4 -12 0z"/>
<path d="M153 3102 c-45 -7 -46 -11 -46 -411 0 -347 1 -381 17 -396 16 -16 40
-18 229 -16 258 1 307 4 307 14 0 5 4 6 9 2 5 -3 13 0 16 6 4 5 13 8 20 5 32
-12 185 92 185 125 0 6 5 7 10 4 6 -3 10 3 10 14 0 11 5 23 10 26 6 4 8 10 5
15 -3 5 0 12 7 17 7 4 14 17 16 28 7 50 9 63 16 73 4 7 2 12 -4 12 -6 0 -8 5
-4 12 11 18 12 91 1 106 -6 8 -6 12 2 12 9 0 9 5 1 20 -6 11 -8 25 -5 30 3 5
1 11 -5 15 -6 4 -8 11 -4 16 7 12 -36 109 -48 109 -5 0 -6 5 -3 10 3 6 -1 13
-9 16 -9 3 -13 10 -10 15 3 5 -2 9 -11 9 -9 0 -14 4 -11 9 3 5 -8 14 -24 21
-17 7 -30 16 -30 21 0 5 -9 9 -19 9 -11 0 -23 5 -26 10 -4 6 -11 8 -16 5 -5
-4 -9 -1 -9 6 0 7 -3 9 -7 6 -3 -4 -13 -1 -21 6 -13 10 -14 9 -7 -3 7 -12 6
-13 -6 -3 -8 6 -39 14 -69 18 -59 6 -431 12 -467 7z m335 -162 c62 2 92 -2 92
-10 0 -5 9 -6 21 -3 12 3 24 2 28 -3 3 -5 23 -18 43 -28 21 -10 35 -23 32 -27
-3 -5 2 -16 10 -25 14 -14 20 -41 19 -81 -1 -7 2 -13 6 -13 10 0 8 -92 -2
-107 -5 -8 -4 -13 3 -13 6 0 8 -5 3 -12 -4 -7 -8 -18 -9 -25 -6 -36 -27 -82
-40 -87 -9 -3 -12 -11 -8 -18 5 -8 2 -9 -9 -5 -10 3 -17 3 -17 -1 0 -14 -69
-33 -129 -36 -32 -2 -63 -6 -70 -10 -6 -4 -11 -3 -11 1 0 12 -83 10 -92 -2 -5
-6 -8 -5 -8 3 0 7 -4 10 -10 7 -13 -8 -12 -24 -13 257 -2 270 -12 246 93 240
30 -1 61 -3 68 -2z"/>
<path d="M3360 3102 c-48 -5 -61 -18 -50 -48 7 -16 6 -24 -1 -24 -7 0 -6 -6 2
-17 8 -9 9 -14 4 -11 -7 4 -11 -8 -10 -33 0 -21 4 -39 8 -39 4 0 4 -8 -2 -17
-5 -10 -5 -26 0 -40 5 -13 4 -25 -1 -28 -6 -3 -6 -15 0 -30 7 -17 6 -25 -1
-25 -7 0 -6 -6 2 -17 8 -9 9 -14 3 -10 -13 7 -13 -41 0 -61 4 -7 2 -12 -4 -12
-7 0 -8 -6 -1 -17 5 -9 6 -26 2 -37 -8 -27 -7 -58 2 -74 5 -7 3 -12 -4 -12 -8
0 -7 -5 2 -17 8 -9 9 -14 4 -11 -7 4 -11 -8 -10 -33 0 -21 4 -39 8 -39 4 0 4
-8 -2 -17 -5 -10 -5 -26 -1 -39 5 -12 6 -25 3 -28 -4 -3 -7 -20 -7 -37 -1 -33
27 -69 39 -49 3 5 11 7 17 4 15 -10 118 -11 118 -2 0 5 6 7 12 5 8 -1 13 10
13 33 0 19 5 38 10 42 7 5 7 8 0 8 -5 0 -10 16 -10 35 0 19 5 35 10 35 7 0 7
3 0 8 -5 4 -10 21 -10 37 0 17 5 33 10 37 7 5 7 8 0 8 -11 0 -12 110 -1 128 3
5 0 13 -6 15 -10 4 -9 8 2 16 13 10 13 11 0 11 -12 0 -12 2 -1 9 9 6 10 11 2
15 -6 4 -11 12 -11 17 0 6 6 7 13 3 9 -6 9 -4 -1 8 -10 12 -10 18 -1 23 8 6 7
10 -2 16 -12 8 -11 11 1 19 13 9 13 10 0 10 -12 0 -12 2 -1 9 9 6 10 11 2 15
-6 4 -11 12 -11 17 0 6 6 7 13 3 9 -6 9 -4 -1 8 -10 12 -10 18 -1 23 8 6 7 10
-2 16 -12 8 -11 11 1 19 13 9 13 10 0 10 -12 0 -12 2 -1 9 9 6 10 11 2 15 -6
4 -11 12 -11 17 0 6 6 7 13 3 9 -6 9 -4 -1 8 -10 12 -10 18 -1 23 8 6 7 10 -2
16 -12 8 -11 11 1 19 11 7 11 10 2 10 -7 0 -10 5 -7 10 17 28 -43 41 -145 32z"/>
<path d="M7253 3089 c-18 -12 -21 -18 -11 -22 11 -4 11 -6 -1 -6 -11 -1 -11
-4 0 -18 8 -9 9 -14 3 -10 -7 4 -11 -5 -12 -24 0 -20 3 -27 11 -22 9 5 9 3 1
-8 -6 -8 -11 -27 -12 -44 -1 -23 1 -26 8 -15 5 8 10 10 10 4 0 -6 -3 -14 -7
-18 -12 -12 -12 -40 0 -48 7 -4 7 -8 2 -8 -6 0 -11 -9 -12 -20 -1 -13 2 -18 9
-14 7 5 8 2 3 -6 -13 -22 -14 -64 -2 -79 9 -12 9 -13 0 -7 -8 4 -13 1 -13 -9
0 -10 5 -13 13 -9 7 5 7 1 -2 -10 -13 -15 -13 -19 0 -27 11 -7 11 -9 0 -9 -10
0 -11 -3 -2 -14 8 -10 9 -16 1 -21 -5 -3 -10 -15 -10 -26 0 -14 4 -18 13 -13
9 6 9 4 1 -7 -6 -8 -11 -27 -12 -44 -1 -23 1 -26 8 -15 5 8 10 10 10 4 0 -6
-3 -14 -7 -18 -12 -12 -14 -78 -1 -70 7 5 8 3 2 -7 -13 -21 -13 -82 0 -98 8
-11 8 -13 -1 -7 -7 4 -13 2 -13 -3 0 -6 5 -11 10 -11 6 0 10 -6 10 -13 0 -7
12 -14 28 -16 58 -6 678 -4 700 3 20 7 27 17 23 39 0 4 5 7 12 7 8 0 7 4 -3
10 -8 5 -10 10 -4 10 6 0 10 8 9 18 -3 38 -16 58 -45 69 -21 8 -28 8 -24 1 5
-7 2 -8 -7 -2 -17 11 -59 13 -53 2 3 -4 0 -8 -5 -8 -6 0 -11 4 -11 8 0 4 -9 8
-20 8 -11 0 -20 -4 -20 -9 0 -6 -5 -6 -12 0 -15 11 -28 11 -47 -1 -7 -5 -16
-5 -20 0 -8 11 -111 13 -105 2 3 -4 0 -8 -5 -8 -6 0 -11 4 -11 8 0 4 -9 8 -20
8 -11 0 -20 -4 -20 -9 0 -6 -5 -6 -12 0 -15 11 -28 11 -45 0 -8 -5 -13 -4 -13
3 0 7 -6 8 -18 1 -36 -19 -50 3 -50 84 0 55 3 73 11 68 9 -5 9 -3 1 8 -16 20
-17 282 -1 272 9 -5 9 -3 0 8 -16 20 -15 122 0 112 7 -4 6 0 -1 9 -8 9 -13 25
-12 35 6 51 -16 64 -107 66 -46 2 -73 -3 -90 -14z"/>
<path d="M1331 2924 c-1 -6 -13 -10 -28 -9 -16 1 -34 -2 -40 -8 -7 -5 -13 -6
-13 -2 0 4 -6 2 -14 -4 -8 -6 -18 -11 -22 -9 -14 4 -66 -33 -106 -76 -35 -36
-40 -44 -37 -62 0 -4 -3 -10 -8 -13 -12 -8 -34 -83 -22 -75 5 3 5 -4 0 -18
-12 -35 -5 -148 12 -175 5 -7 5 -17 2 -23 -3 -5 -2 -10 3 -10 6 0 13 -11 16
-25 4 -14 11 -25 17 -25 6 0 7 -4 4 -10 -3 -5 -2 -10 2 -10 5 0 22 -12 38 -27
42 -40 80 -57 150 -69 36 -7 159 -6 205 1 25 4 54 8 65 8 11 1 24 8 28 15 5 7
12 10 17 7 5 -3 26 12 47 33 40 42 53 93 30 116 -16 16 -127 18 -127 2 0 -6
-4 -5 -9 3 -7 10 -15 7 -36 -18 -15 -17 -32 -28 -36 -25 -5 3 -9 1 -9 -5 0 -5
-8 -8 -17 -6 -10 1 -24 -2 -30 -8 -9 -6 -13 -6 -13 3 0 9 -3 10 -13 1 -8 -6
-17 -8 -20 -4 -4 3 -18 7 -31 7 -38 2 -102 66 -92 92 3 7 1 14 -5 14 -6 0 -7
5 -4 10 4 6 11 8 16 5 5 -4 9 0 9 7 0 8 3 9 8 3 8 -12 32 -13 50 -2 7 5 12 3
12 -5 0 -8 3 -9 8 -3 4 6 25 10 47 10 22 0 43 -4 47 -10 5 -6 8 -4 8 5 0 13 1
13 10 0 8 -12 10 -12 10 -1 0 11 3 11 15 1 8 -7 15 -9 15 -4 0 10 72 10 89 0
6 -4 11 -3 11 2 0 5 17 6 41 2 28 -5 44 -4 53 6 8 7 16 11 18 8 7 -6 1 126 -7
161 -4 17 -8 35 -9 42 -1 7 -10 20 -19 31 -9 10 -17 22 -17 25 0 11 -39 47
-50 47 -5 0 -10 5 -10 10 0 6 -6 10 -14 10 -8 0 -16 5 -18 10 -2 6 -12 12 -23
15 -11 2 -37 9 -57 14 -21 5 -38 7 -38 4 0 -3 -6 0 -14 6 -11 9 -16 9 -21 0
-6 -8 -10 -7 -16 2 -7 11 -9 11 -9 -1 0 -13 -1 -13 -10 0 -8 12 -11 13 -19 1
-7 -11 -9 -11 -14 0 -3 8 -6 9 -6 3z m99 -145 c0 -5 3 -8 8 -6 14 4 51 -42 61
-77 5 -20 6 -37 3 -37 -4 -1 -21 -2 -37 -3 -17 -1 -37 -6 -44 -11 -9 -5 -12
-4 -8 2 8 12 -101 12 -120 0 -6 -4 -14 -3 -18 3 -4 6 -10 8 -14 6 -4 -3 -13
-1 -21 5 -9 5 -10 9 -3 9 6 0 9 8 6 19 -5 20 35 84 48 76 4 -3 9 1 12 9 6 15
127 20 127 5z"/>
<path d="M2820 2923 c0 -5 -15 -10 -32 -11 -67 -5 -144 -42 -176 -84 -7 -9
-19 -23 -27 -31 -8 -8 -11 -17 -8 -21 4 -3 1 -6 -5 -6 -6 0 -14 -16 -18 -35
-3 -19 -10 -35 -14 -35 -4 0 -6 -14 -5 -30 1 -17 -1 -33 -6 -36 -5 -3 -4 -14
1 -25 8 -14 7 -19 -1 -19 -9 0 -9 -3 0 -14 9 -10 9 -16 1 -21 -8 -5 -8 -10 0
-20 6 -7 10 -17 9 -21 -1 -5 -1 -11 1 -14 1 -3 3 -16 6 -29 2 -14 9 -30 15
-38 6 -7 8 -13 5 -13 -9 0 11 -24 58 -71 21 -22 45 -39 52 -39 8 0 14 -4 14
-9 0 -5 7 -12 16 -15 10 -4 13 -2 8 7 -6 9 -4 9 7 1 41 -32 308 -34 346 -3 7
6 18 7 24 3 7 -4 9 -3 6 2 -3 6 7 15 22 22 24 11 50 46 47 63 0 3 5 13 13 22
9 12 10 17 2 17 -7 0 -10 4 -7 9 4 5 4 16 0 24 -4 11 -21 14 -72 12 -78 -3
-100 -10 -126 -43 -11 -14 -26 -22 -36 -19 -9 2 -25 0 -34 -5 -10 -6 -16 -5
-16 2 0 8 -6 8 -20 0 -11 -6 -20 -7 -20 -2 0 5 -14 8 -30 7 -17 -1 -28 0 -26
2 2 2 -9 17 -25 33 -21 21 -29 38 -29 64 0 37 15 47 38 24 9 -9 12 -9 12 1 0
11 3 11 17 0 11 -10 14 -10 9 -1 -4 6 -2 12 3 12 6 0 11 -4 11 -9 0 -6 12 -6
29 -1 19 5 33 4 40 -3 8 -8 11 -8 11 2 0 7 5 9 13 4 16 -10 26 -11 58 -2 16 4
32 2 38 -4 8 -8 11 -7 11 3 0 13 2 13 10 0 8 -13 10 -13 10 0 0 10 3 11 11 3
7 -7 21 -8 39 -3 18 5 32 4 39 -3 8 -8 11 -8 11 0 0 6 8 9 18 6 30 -7 53 69
29 93 -4 4 -2 13 4 21 8 8 8 13 1 13 -6 0 -9 11 -7 25 1 14 -1 25 -5 25 -4 0
-11 15 -14 34 -6 30 -96 145 -96 123 0 -5 -12 1 -26 12 -14 11 -45 23 -70 27
-24 3 -47 11 -50 16 -3 5 -12 4 -20 -3 -10 -8 -14 -8 -14 0 0 7 -8 8 -23 2
-14 -5 -30 -5 -40 0 -9 6 -17 6 -17 2z m127 -159 c7 -10 13 -14 13 -9 0 5 6 1
14 -10 21 -31 25 -83 7 -98 -10 -8 -13 -9 -8 0 8 13 -59 13 -80 0 -6 -4 -14
-3 -17 2 -7 10 -25 9 -43 -2 -6 -4 -14 -3 -18 2 -3 6 -20 8 -37 6 -39 -5 -49
8 -37 48 10 34 45 72 75 80 39 11 117 0 131 -19z"/>
<path d="M3886 2921 c-3 -5 -26 -12 -51 -15 -25 -4 -45 -12 -45 -18 0 -6 -3
-8 -7 -5 -3 4 -12 2 -20 -4 -7 -6 -13 -8 -13 -5 0 4 -11 -5 -25 -20 -14 -15
-25 -23 -25 -18 0 5 -9 -6 -20 -24 -11 -17 -19 -35 -19 -38 0 -4 -3 -10 -8
-13 -15 -10 -41 -101 -31 -107 5 -4 5 -10 0 -17 -11 -14 -10 -86 1 -104 4 -6
3 -15 -3 -18 -7 -4 -7 -11 -2 -18 5 -7 17 -33 27 -59 10 -27 21 -48 26 -48 4
0 11 -9 14 -20 3 -11 14 -20 22 -20 9 0 13 -3 10 -6 -7 -8 74 -53 106 -60 79
-17 162 -20 232 -9 28 4 56 8 63 8 6 0 12 4 12 8 0 6 31 20 50 22 17 2 73 67
96 111 24 45 28 64 30 156 2 106 -8 170 -27 170 -6 0 -8 4 -4 9 3 5 -2 17 -11
25 -8 9 -12 16 -9 16 4 0 -3 9 -16 20 -13 10 -20 19 -14 20 5 0 -16 13 -47 29
-52 27 -121 48 -140 43 -5 -1 -8 3 -8 9 0 8 -4 9 -13 0 -8 -6 -17 -8 -20 -5
-10 10 -77 12 -83 2 -3 -4 -10 -8 -15 -8 -6 0 -7 5 -4 10 3 6 4 10 1 10 -3 0
-7 -4 -10 -9z m148 -145 c20 -8 36 -20 36 -26 0 -6 9 -20 20 -32 16 -17 17
-24 7 -37 -9 -12 -9 -13 0 -7 20 11 13 -184 -7 -207 -39 -48 -53 -58 -66 -53
-8 3 -13 2 -10 -3 3 -5 -5 -11 -19 -13 -14 -3 -25 0 -26 6 0 7 -3 6 -6 -2 -2
-6 -9 -10 -14 -6 -5 3 -22 7 -37 10 -15 2 -38 18 -52 34 -27 30 -54 110 -38
110 5 0 4 8 -1 18 -6 11 -6 24 -1 32 5 8 6 19 2 25 -11 16 -8 36 17 92 13 29
27 50 32 47 5 -3 9 0 9 6 0 6 5 8 10 5 6 -3 10 -2 10 3 0 15 97 14 134 -2z"/>
<path d="M4740 2924 c0 -7 -16 -15 -35 -18 -19 -4 -41 -14 -50 -22 -8 -9 -15
-12 -15 -8 0 3 -7 1 -15 -6 -12 -10 -17 -8 -26 13 -11 24 -17 26 -70 26 -32 0
-63 2 -69 6 -5 3 -10 1 -10 -4 0 -6 -7 -11 -15 -11 -9 0 -15 -10 -16 -22 -4
-95 -4 -745 0 -753 3 -5 6 -17 6 -25 0 -12 14 -15 68 -15 37 0 67 -4 67 -8 0
-4 12 -1 27 7 26 13 28 19 29 84 1 39 5 75 9 81 3 6 1 11 -4 11 -8 0 -7 7 1
19 7 12 16 17 23 11 5 -4 26 -11 45 -13 19 -3 37 -6 40 -7 12 -4 107 -1 130 4
14 3 37 8 53 12 15 3 27 10 27 15 0 5 7 9 15 9 8 0 15 5 15 10 0 6 9 10 21 10
11 0 18 4 15 8 -3 5 3 16 12 25 30 28 41 45 34 51 -3 4 0 11 8 16 7 5 15 14
16 22 1 7 5 28 8 47 6 30 8 124 5 176 -1 11 -6 25 -11 32 -5 7 -7 17 -4 22 4
5 2 12 -4 16 -6 4 -8 11 -5 16 4 5 2 9 -4 9 -5 0 -13 9 -16 20 -16 50 -115
120 -170 120 -13 0 -27 5 -30 10 -5 8 -11 7 -21 -1 -11 -9 -14 -8 -14 2 0 11
-2 11 -10 -1 -8 -12 -10 -12 -10 -1 0 11 -3 11 -16 0 -13 -10 -17 -10 -25 2
-5 8 -9 9 -9 3z m84 -154 c10 0 16 -3 13 -7 -4 -3 2 -13 13 -20 11 -8 18 -18
15 -23 -3 -5 -1 -11 5 -15 6 -4 8 -11 5 -16 -4 -5 -2 -9 2 -9 5 0 9 -36 9 -80
-1 -44 -3 -80 -7 -80 -3 0 -5 -10 -4 -21 1 -21 -16 -44 -64 -84 -14 -11 -21
-14 -17 -7 4 6 2 12 -3 12 -6 0 -11 -3 -11 -7 0 -5 -24 -8 -54 -8 -30 0 -52 3
-49 8 2 4 -7 7 -21 7 -14 0 -29 8 -33 18 -7 14 -9 169 -4 278 1 24 66 56 119
59 18 1 36 5 39 9 4 3 11 2 17 -4 5 -5 19 -10 30 -10z"/>
<path d="M5461 2925 c-1 -6 -13 -11 -28 -10 -63 2 -203 -75 -203 -111 0 -6 -7
-14 -15 -18 -8 -3 -15 -12 -15 -21 0 -8 -4 -15 -8 -15 -4 0 -8 -8 -9 -17 0
-10 -4 -29 -8 -43 -9 -34 -13 -180 -5 -180 4 0 7 -6 8 -12 1 -29 12 -62 27
-84 8 -13 14 -25 13 -27 -2 -1 15 -19 37 -38 39 -35 72 -54 88 -51 4 1 7 -2 7
-7 0 -13 9 -13 175 -13 155 0 165 1 165 14 0 5 5 6 10 3 18 -11 101 54 109 85
9 36 5 75 -6 72 -7 -1 -13 2 -13 7 0 8 -97 9 -131 2 -3 0 -20 -14 -38 -30 -21
-18 -41 -28 -57 -26 -13 1 -24 -2 -24 -7 0 -5 -5 -6 -10 -3 -6 4 -28 8 -50 10
-55 6 -85 28 -98 74 -16 51 -15 54 8 48 11 -3 20 -1 20 4 0 5 5 9 11 9 5 0 7
-6 3 -12 -5 -10 -4 -10 6 -1 8 8 20 9 36 3 15 -6 24 -6 24 0 0 6 5 10 11 10 5
0 8 -4 5 -8 -3 -5 1 -9 9 -9 8 0 15 4 15 9 0 5 9 4 20 -2 14 -7 20 -7 20 0 0
5 5 10 11 10 5 0 7 -6 3 -12 -5 -10 -4 -10 6 -1 8 8 20 9 36 3 15 -6 24 -6 24
0 0 6 5 10 11 10 5 0 8 -4 5 -8 -3 -5 1 -9 9 -9 8 0 15 4 15 9 0 5 9 4 20 -2
15 -8 20 -8 20 1 0 8 5 7 17 -2 13 -11 17 -11 20 -1 3 6 9 12 14 12 6 0 7 -6
3 -12 -5 -9 -2 -9 9 1 9 7 17 10 17 6 0 -4 7 -2 15 5 8 7 13 16 10 20 -3 5 -1
11 5 15 6 4 7 12 3 18 -4 6 -8 30 -9 52 -4 52 -24 125 -35 125 -5 0 -9 7 -9
15 0 8 -4 15 -10 15 -5 0 -9 4 -7 8 3 10 -57 62 -71 62 -6 0 -12 5 -14 10 -2
6 -14 13 -28 16 -14 3 -36 8 -50 11 -14 3 -33 5 -43 5 -11 -1 -15 4 -10 11 4
8 1 8 -9 -1 -13 -10 -17 -10 -22 0 -5 11 -7 11 -12 0 -5 -10 -9 -10 -22 0 -12
10 -14 10 -8 1 4 -7 3 -13 -3 -13 -5 0 -12 6 -14 13 -3 6 -6 7 -6 2z m109
-146 c22 -6 60 -70 60 -100 0 -25 -2 -27 -45 -24 -25 1 -48 -2 -51 -7 -3 -5
-11 -5 -17 1 -20 16 -23 16 -40 3 -8 -7 -18 -9 -21 -4 -3 5 -25 9 -50 7 -35
-1 -43 2 -41 14 2 9 4 17 5 19 3 2 7 18 9 30 2 16 38 51 62 62 22 9 91 8 129
-1z"/>
<path d="M6355 2922 c-3 -3 -16 -7 -28 -8 -47 -4 -82 -14 -107 -32 -14 -10
-37 -22 -52 -26 -24 -5 -28 -3 -29 16 -1 13 -1 26 0 31 1 9 -158 8 -180 -1
-14 -6 -16 -40 -15 -297 1 -159 5 -296 10 -304 7 -10 5 -12 -5 -6 -11 6 -11 5
-2 -5 16 -18 171 -19 186 -2 6 8 11 83 11 205 1 185 2 193 24 215 12 12 22 19
22 15 0 -5 5 0 11 10 5 9 19 17 30 17 11 0 18 4 15 8 -3 5 31 8 75 8 112 -1
112 -1 115 72 2 53 0 64 -17 73 -27 14 -56 19 -64 11z"/>
<path d="M6720 2925 c0 -6 -15 -12 -32 -13 -47 -3 -89 -13 -112 -26 -26 -14
-80 -69 -86 -87 -9 -28 -3 -133 8 -137 7 -2 12 -10 12 -17 0 -25 110 -88 175
-100 6 -1 12 -3 15 -4 4 -2 17 -5 65 -15 6 -1 16 -5 23 -9 6 -5 12 -6 12 -3 0
3 18 -1 40 -9 22 -8 40 -12 40 -9 0 3 7 -1 15 -10 20 -20 20 -66 -1 -66 -8 0
-13 -4 -10 -8 3 -5 -7 -8 -22 -7 -15 1 -31 -1 -37 -4 -17 -9 -45 -8 -45 2 0 5
-6 4 -14 -2 -11 -9 -17 -8 -29 4 -12 11 -17 12 -20 2 -4 -9 -6 -9 -6 1 -1 6
-6 12 -13 12 -6 0 -22 10 -35 22 -18 17 -38 22 -85 24 -76 4 -100 -7 -94 -44
2 -15 5 -35 5 -45 1 -10 6 -15 11 -12 6 3 10 1 10 -4 0 -16 33 -51 47 -51 7 0
13 -4 13 -8 0 -5 6 -9 13 -10 6 0 26 -4 42 -7 17 -4 37 -8 45 -10 8 -2 17 -4
20 -5 15 -5 191 0 230 6 25 3 53 7 63 7 9 1 17 5 17 8 0 4 9 10 19 14 34 11
81 59 87 90 3 16 11 33 17 37 9 6 8 8 -2 8 -11 0 -12 3 -4 11 9 9 8 20 -5 43
-9 17 -15 36 -14 43 1 6 -7 14 -18 18 -11 3 -20 13 -20 21 0 8 -7 14 -15 14
-8 0 -15 5 -15 11 0 5 -4 7 -10 4 -5 -3 -10 -2 -10 4 0 5 -18 12 -40 16 -22 4
-40 10 -40 14 0 4 -6 8 -12 8 -7 0 -29 4 -48 8 -19 4 -40 8 -47 9 -7 1 -15 5
-19 8 -3 4 -12 4 -20 1 -8 -3 -14 -1 -14 4 0 5 -12 10 -27 11 -32 3 -52 20
-58 51 -3 18 3 25 31 37 60 25 194 8 194 -25 0 -11 56 -32 64 -24 3 4 6 1 6
-7 0 -10 3 -10 15 0 9 7 15 8 15 2 0 -10 57 -1 79 12 13 8 7 72 -9 91 -5 6 -7
15 -3 18 3 4 0 7 -8 7 -9 0 -24 8 -35 18 -17 17 -44 27 -94 38 -8 2 -32 5 -52
6 -21 2 -38 7 -38 12 0 5 -7 3 -15 -4 -8 -7 -15 -8 -15 -3 0 5 -7 10 -15 10
-8 0 -15 -5 -15 -11 0 -6 -5 -4 -10 4 -5 8 -10 10 -10 4 0 -14 -32 -13 -42 1
-5 7 -8 6 -8 0z"/>
<path d="M9212 2924 c4 -6 -12 -15 -39 -22 -67 -18 -135 -69 -164 -122 -7 -14
-12 -28 -11 -32 1 -5 -2 -8 -8 -8 -5 0 -12 -23 -16 -50 -4 -28 -11 -53 -15
-56 -5 -3 -7 -10 -3 -15 3 -6 8 -34 10 -62 5 -63 7 -78 17 -94 5 -7 5 -18 1
-25 -4 -6 -3 -8 3 -5 6 4 15 -5 21 -21 11 -31 80 -102 99 -102 6 0 19 -7 27
-16 9 -8 16 -11 16 -4 0 7 8 5 23 -4 12 -7 30 -12 40 -11 9 2 17 0 17 -3 0 -7
72 -6 177 2 29 2 60 10 70 17 11 9 14 10 9 2 -10 -18 9 -16 24 2 7 8 16 13 20
10 4 -3 13 2 20 10 7 8 16 12 21 9 5 -3 9 2 9 11 0 8 6 18 14 21 8 3 13 16 11
29 -1 14 1 22 5 20 4 -3 8 7 8 20 0 34 -21 43 -95 41 -49 -1 -67 -6 -85 -24
-14 -12 -30 -22 -36 -22 -7 0 -12 -5 -12 -11 0 -6 -6 -9 -12 -6 -7 2 -21 0
-32 -5 -14 -7 -16 -7 -11 2 6 9 3 9 -13 1 -13 -7 -23 -7 -27 -2 -3 6 -13 9
-23 9 -37 -2 -82 25 -82 49 0 7 -4 13 -8 13 -5 0 -9 14 -10 31 -1 27 2 30 26
28 15 -2 33 0 40 4 7 5 12 3 12 -5 0 -8 3 -9 8 -3 4 6 25 10 47 10 22 0 43 -4
47 -10 5 -6 8 -4 8 5 0 13 1 13 10 0 8 -12 10 -12 10 -1 0 11 3 11 15 1 8 -7
15 -9 15 -4 0 10 72 10 89 0 6 -4 11 -1 11 6 0 9 3 9 10 -2 5 -8 10 -10 10 -5
0 6 19 9 45 7 41 -4 46 -2 55 23 6 15 8 30 5 35 -3 5 -1 11 5 15 6 4 8 11 4
16 -3 6 -8 25 -11 42 -9 68 -13 81 -20 86 -4 3 -17 22 -27 40 -22 39 -64 80
-83 81 -7 0 -13 4 -13 9 0 11 -57 28 -112 33 -16 1 -28 7 -28 13 0 5 -5 3 -10
-5 -8 -12 -10 -12 -10 -1 0 11 -3 11 -15 1 -12 -10 -15 -10 -15 0 0 10 -3 10
-15 0 -12 -10 -15 -10 -15 0 0 10 -3 10 -15 0 -12 -10 -18 -10 -32 1 -9 8 -14
9 -11 3z m159 -149 c31 -17 53 -50 44 -65 -4 -6 -1 -9 7 -8 15 4 12 -41 -4
-57 -7 -7 -9 -6 -5 1 8 14 -100 13 -122 -1 -9 -5 -12 -4 -7 3 4 7 -13 9 -55 7
l-60 -3 2 31 c4 41 25 74 57 91 35 18 108 19 143 1z"/>
<path d="M1760 2899 c0 -5 -4 -7 -10 -4 -16 10 -11 -16 10 -60 11 -22 19 -46
20 -53 0 -7 4 -11 9 -8 4 3 7 -6 6 -19 -2 -14 2 -23 8 -22 6 1 12 -4 13 -10 1
-7 2 -18 3 -24 0 -5 6 -7 13 -3 6 4 8 3 5 -3 -4 -6 9 -43 28 -82 19 -39 35
-78 35 -85 0 -7 7 -19 15 -26 8 -7 15 -19 15 -26 0 -8 4 -14 10 -14 5 0 7 -7
4 -15 -4 -8 -1 -15 6 -15 7 0 10 -7 6 -15 -3 -8 -1 -15 4 -15 4 0 11 -14 15
-30 4 -17 11 -28 16 -24 5 3 9 -4 9 -15 0 -12 5 -21 11 -21 5 0 7 -5 3 -12 -4
-6 -3 -8 4 -4 6 3 13 2 17 -4 4 -6 10 -8 15 -5 5 3 11 2 14 -3 4 -6 50 -6 126
0 15 1 46 34 49 53 2 6 8 17 16 25 14 16 30 60 27 73 -1 4 3 7 9 7 5 0 8 4 5
9 -3 5 1 14 9 21 8 7 13 16 10 20 -3 4 2 13 10 20 8 7 13 16 10 20 -3 4 7 24
20 45 14 20 21 34 15 30 -5 -3 -10 -2 -10 3 0 6 6 12 13 15 7 3 19 23 27 46 7
23 17 41 22 41 4 0 7 3 6 8 -1 4 11 34 27 67 16 33 27 66 26 74 -1 7 2 10 7 7
16 -10 7 25 -9 35 -8 5 -45 9 -84 8 -72 -2 -115 -19 -115 -45 0 -8 -4 -14 -10
-14 -6 0 -9 -3 -8 -7 1 -5 -4 -19 -12 -33 -7 -14 -13 -27 -13 -30 0 -3 -3 -15
-8 -28 -5 -13 -9 -28 -9 -33 0 -5 -4 -9 -9 -9 -5 0 -12 -16 -15 -35 -4 -19
-11 -35 -15 -35 -9 0 -26 -48 -23 -62 1 -5 -3 -8 -9 -8 -6 0 -8 -7 -5 -16 3
-8 2 -12 -4 -9 -6 3 -10 -3 -10 -15 0 -13 -5 -20 -12 -17 -7 2 -12 12 -10 22
2 9 -1 14 -6 11 -5 -3 -13 10 -16 29 -4 19 -12 35 -18 35 -6 0 -8 9 -5 20 3
11 1 18 -4 14 -5 -3 -9 -1 -9 5 0 5 -4 20 -9 33 -5 13 -9 27 -9 32 0 5 -5 12
-11 16 -6 3 -14 17 -16 30 -2 13 -9 26 -14 29 -5 4 -13 20 -16 36 -4 17 -14
36 -23 43 -9 6 -12 12 -6 12 5 1 -2 7 -16 15 -30 17 -170 21 -170 4z"/>
<path d="M8107 2888 c-9 -5 -12 -84 -12 -303 -1 -339 -12 -307 108 -309 69 -1
96 11 81 35 -4 7 -3 10 2 6 5 -3 9 100 9 254 0 167 -3 259 -10 259 -5 0 -5 4
2 8 17 11 5 52 -16 54 -54 5 -154 2 -164 -4z"/>
</g>
</svg>
